<svg xmlns="http://www.w3.org/2000/svg" width="500" height="500" viewBox="0 0 500 500" version="1.1"><path d="M 303 43.591 C 278.219 48.110, 259.850 64.144, 252.405 87.755 C 250.374 94.198, 249.528 110.206, 250.848 117.228 C 252.631 126.716, 257.742 137.498, 264.558 146.149 C 268.032 150.558, 270.639 154.776, 270.353 155.523 C 270.066 156.269, 266.157 159.675, 261.666 163.091 C 249.026 172.704, 236.043 186.301, 228.704 197.611 C 222.683 206.889, 212 227.595, 212 229.986 C 212 230.558, 211.542 231.809, 210.982 232.764 C 210.423 233.719, 206.808 244.140, 202.949 255.923 C 199.090 267.705, 194.585 279.855, 192.936 282.923 C 183.563 300.368, 162.611 322.330, 142.006 336.307 C 124.333 348.295, 96.013 359.705, 73 364.108 C 66.675 365.319, 61.412 366.364, 61.306 366.432 C 61.199 366.500, 63.270 376.668, 65.909 389.028 C 68.548 401.388, 71.018 413.188, 71.399 415.250 C 72.290 420.081, 71.039 420.052, 97.500 415.857 C 126.307 411.290, 156.309 400.545, 179.608 386.451 C 194.614 377.374, 204.918 369.476, 222.134 353.854 C 231.963 344.936, 233.396 344.077, 238.500 344.047 C 243.233 344.020, 246.632 345.846, 263.327 357.386 C 282.567 370.685, 303.875 389.763, 316 404.548 C 326.314 417.125, 335.106 430.490, 343.437 446.254 C 347.144 453.269, 350.475 458.873, 350.838 458.707 C 351.202 458.541, 352.625 457.877, 354 457.232 C 357.465 455.605, 375.400 448.083, 388 442.973 C 393.775 440.631, 398.673 438.569, 398.884 438.390 C 399.096 438.211, 397.786 433.888, 395.973 428.782 C 382.794 391.656, 370.453 368.547, 350.163 343 C 340.171 330.420, 318.104 307.954, 304.810 296.828 C 294.026 287.802, 290 282.411, 290 277 C 290 273.547, 293.725 266.410, 296.464 264.616 C 300.668 261.861, 310.467 261.011, 326.500 262.011 C 367.978 264.596, 391.676 262.427, 423.500 253.135 C 438.430 248.775, 439.293 248.356, 438.727 245.735 C 438.462 244.506, 436.518 235.063, 434.408 224.750 C 431.378 209.941, 430.239 206, 428.990 206 C 428.121 206, 423.155 206.855, 417.955 207.899 C 398.537 211.800, 393.175 212.362, 375.500 212.348 C 360.800 212.336, 355.660 211.935, 347.464 210.159 C 331.148 206.623, 321.983 202.686, 322.017 199.227 C 322.041 196.749, 327.785 169.157, 328.526 167.958 C 328.868 167.405, 331.988 165.665, 335.461 164.091 C 354.318 155.540, 366.822 141.670, 372.764 122.711 C 375.365 114.413, 375.053 96.318, 372.159 87.586 C 365.225 66.665, 351.504 52.529, 331.779 45.983 C 325.640 43.946, 308.752 42.542, 303 43.591" stroke="none" fill="#fafafa" fill-rule="evenodd"/><path d="M 299.300 19.992 C 284.105 22.138, 266.008 30.814, 254.148 41.638 C 237.527 56.808, 228.142 75.701, 225.919 98.465 C 224.351 114.526, 226.915 128.632, 234.103 143.485 C 235.697 146.777, 237 149.764, 237 150.124 C 237 150.484, 232.143 155.665, 226.207 161.639 C 214.978 172.940, 207.194 183.231, 200.220 196 C 193.917 207.540, 185.322 227.964, 181.564 240.333 C 172.765 269.288, 169.862 275.204, 157.538 289.285 C 133.603 316.632, 104.101 332.939, 65.031 340.421 C 57.623 341.839, 50.648 343.003, 49.531 343.006 C 45.315 343.017, 39.557 345.289, 36.829 348.017 C 32.864 351.982, 33.071 357.383, 38.073 380.593 C 40.313 390.986, 43.920 408.043, 46.088 418.495 C 51.521 444.694, 52.218 445.483, 69 444.468 C 99.372 442.631, 137.902 433.503, 166.117 421.460 C 188.606 411.861, 211.926 396.485, 233.223 377.211 C 236.737 374.031, 239.551 372.207, 240.283 372.636 C 251.424 379.161, 268.555 392.596, 280.894 404.485 C 299.170 422.095, 313.896 442.494, 324.579 465 C 332.813 482.344, 333.292 483.185, 336.157 485.295 C 340.601 488.568, 345.320 487.923, 359.500 482.108 C 366.650 479.176, 374.300 475.980, 376.500 475.005 C 378.700 474.031, 389.596 469.514, 400.714 464.967 C 424.090 455.406, 427 453.341, 427 446.310 C 427 441.495, 420.936 422.535, 412.952 402.386 C 401.822 374.298, 385.101 345.486, 368.058 325.029 C 365.551 322.019, 362.378 318.194, 361.006 316.529 C 359.634 314.863, 352.974 307.831, 346.206 300.902 L 333.899 288.303 358.200 287.721 C 388.784 286.987, 402.009 284.971, 433 276.316 C 451.114 271.257, 460.452 267.440, 463.459 263.866 C 466.956 259.710, 466.796 254.574, 462.549 234.672 C 460.651 225.777, 457.717 211.799, 456.029 203.608 C 452.394 185.973, 451.107 182.899, 446.432 180.669 C 441.716 178.420, 438.036 178.561, 425.769 181.459 C 400.068 187.532, 376.363 189.956, 361.525 188.028 C 352.208 186.818, 350 186.219, 350 184.901 C 350 184.371, 350.788 183.649, 351.750 183.297 C 355.574 181.897, 365.862 174.290, 372.344 168.069 C 387.220 153.793, 393.912 140.892, 398.100 118.419 C 400.497 105.554, 400.164 100.147, 395.940 83.375 C 388.630 54.348, 363.699 29.438, 334.500 21.987 C 325.348 19.652, 308.480 18.696, 299.300 19.992 M 303 43.591 C 278.219 48.110, 259.850 64.144, 252.405 87.755 C 250.374 94.198, 249.528 110.206, 250.848 117.228 C 252.631 126.716, 257.742 137.498, 264.558 146.149 C 268.032 150.558, 270.639 154.776, 270.353 155.523 C 270.066 156.269, 266.157 159.675, 261.666 163.091 C 249.026 172.704, 236.043 186.301, 228.704 197.611 C 222.683 206.889, 212 227.595, 212 229.986 C 212 230.558, 211.542 231.809, 210.982 232.764 C 210.423 233.719, 206.808 244.140, 202.949 255.923 C 199.090 267.705, 194.585 279.855, 192.936 282.923 C 183.563 300.368, 162.611 322.330, 142.006 336.307 C 124.333 348.295, 96.013 359.705, 73 364.108 C 66.675 365.319, 61.412 366.364, 61.306 366.432 C 61.199 366.500, 63.270 376.668, 65.909 389.028 C 68.548 401.388, 71.018 413.188, 71.399 415.250 C 72.290 420.081, 71.039 420.052, 97.500 415.857 C 126.307 411.290, 156.309 400.545, 179.608 386.451 C 194.614 377.374, 204.918 369.476, 222.134 353.854 C 231.963 344.936, 233.396 344.077, 238.500 344.047 C 243.233 344.020, 246.632 345.846, 263.327 357.386 C 282.567 370.685, 303.875 389.763, 316 404.548 C 326.314 417.125, 335.106 430.490, 343.437 446.254 C 347.144 453.269, 350.475 458.873, 350.838 458.707 C 351.202 458.541, 352.625 457.877, 354 457.232 C 357.465 455.605, 375.400 448.083, 388 442.973 C 393.775 440.631, 398.673 438.569, 398.884 438.390 C 399.096 438.211, 397.786 433.888, 395.973 428.782 C 382.794 391.656, 370.453 368.547, 350.163 343 C 340.171 330.420, 318.104 307.954, 304.810 296.828 C 294.026 287.802, 290 282.411, 290 277 C 290 273.547, 293.725 266.410, 296.464 264.616 C 300.668 261.861, 310.467 261.011, 326.500 262.011 C 367.978 264.596, 391.676 262.427, 423.500 253.135 C 438.430 248.775, 439.293 248.356, 438.727 245.735 C 438.462 244.506, 436.518 235.063, 434.408 224.750 C 431.378 209.941, 430.239 206, 428.990 206 C 428.121 206, 423.155 206.855, 417.955 207.899 C 398.537 211.800, 393.175 212.362, 375.500 212.348 C 360.800 212.336, 355.660 211.935, 347.464 210.159 C 331.148 206.623, 321.983 202.686, 322.017 199.227 C 322.041 196.749, 327.785 169.157, 328.526 167.958 C 328.868 167.405, 331.988 165.665, 335.461 164.091 C 354.318 155.540, 366.822 141.670, 372.764 122.711 C 375.365 114.413, 375.053 96.318, 372.159 87.586 C 365.225 66.665, 351.504 52.529, 331.779 45.983 C 325.640 43.946, 308.752 42.542, 303 43.591" stroke="none" fill="#050505" fill-rule="evenodd"/></svg>