<svg xmlns="http://www.w3.org/2000/svg" width="690" height="650" viewBox="360 80 690 650" version="1.1" role="img" aria-label="macOS Soundboard menu bar icon disabled">
  <path d="M 680 104.105 C 613.542 109.909, 553.001 138.265, 504.950 186.092 C 461.848 228.994, 434.307 283.091, 424.813 343.500 C 423.096 354.426, 422.654 363.600, 422.046 401 C 421.180 454.278, 421.870 450.915, 406.468 476.931 C 404.048 481.017, 401.806 486.192, 401.485 488.431 C 401.164 490.669, 401.037 529.850, 401.201 575.500 L 401.500 658.500 403.823 664.252 C 408.301 675.343, 417.107 683.681, 428.270 687.400 C 432.581 688.837, 459.086 688.990, 704.270 688.995 C 896.494 688.998, 976.665 688.683, 979.500 687.913 C 989.033 685.322, 999.058 676.379, 1003.820 666.218 L 1006.500 660.500 1006.500 559.500 L 1006.500 458.500 1002.258 443 C 988.151 391.458, 987.401 388.194, 985.985 372.253 C 984.280 353.051, 982.100 338.460, 978.403 321.500 C 973.436 298.713, 974.370 294.930, 988.679 279.861 C 998.359 269.668, 1000.757 266.259, 1003.935 258.178 C 1010.244 242.133, 1007.978 223.180, 997.956 208.172 L 994.045 202.315 1003.234 180.908 C 1013.132 157.850, 1014.036 153.748, 1010.649 147.259 C 1006.335 138.992, 993.779 137.005, 986.984 143.515 C 985.214 145.211, 981.167 153.197, 975.923 165.345 C 971.375 175.880, 967.346 184.863, 966.970 185.307 C 966.594 185.751, 961.159 186.217, 954.893 186.344 C 943.604 186.571, 943.408 186.617, 933.437 191.287 C 923.110 196.123, 918.612 196.944, 913.363 194.948 C 911.841 194.369, 905.849 189.259, 900.048 183.591 C 841.417 126.313, 760.477 97.076, 680 104.105 M 680.957 110.999 C 675.709 111.474, 665.809 112.775, 658.957 113.890 C 545.654 132.339, 452.328 224.937, 432.986 338.102 C 429.882 356.263, 429.034 370.910, 428.998 407 C 428.959 446.341, 428.506 449.533, 420.400 467.583 C 420.082 468.293, 421.941 468.667, 425.797 468.667 C 433.042 468.667, 439.775 471.675, 444.125 476.857 C 445.810 478.863, 450.014 486.804, 453.467 494.503 C 461.122 511.566, 466.663 521.571, 477.021 537.031 C 506.435 580.936, 548.283 615.416, 597.546 636.337 C 619.338 645.591, 637.346 650.823, 662.500 655.207 C 673.915 657.196, 678.914 657.473, 703.500 657.478 C 734.450 657.485, 741.684 656.696, 767.500 650.501 C 843.119 632.356, 910.002 580.385, 945.930 511.854 C 953.672 497.087, 958.200 486.577, 963.962 470 C 968.307 457.500, 968.853 456.477, 971.333 456.183 C 972.964 455.990, 974.225 456.423, 974.558 457.290 C 975.887 460.753, 964.060 492.139, 953.923 512.053 C 914.496 589.506, 837.789 646.083, 751.904 661.057 C 718.613 666.861, 681.038 666.253, 647 659.358 C 608.679 651.595, 567.547 632.838, 534.691 608.143 C 497.291 580.033, 465.888 540.443, 446.929 497.500 C 443.643 490.058, 439.759 482.940, 437.845 480.852 C 430.168 472.480, 417.749 473.856, 410.910 483.836 L 408.500 487.353 408.233 570.362 C 407.938 662.001, 407.749 658.910, 414.241 668.624 C 417.832 673.996, 425.153 679.426, 430.891 680.971 C 433.310 681.622, 528.630 682.002, 705.223 682.065 C 973.380 682.160, 975.890 682.142, 980.350 680.169 C 986.729 677.348, 993.496 670.726, 996.730 664.142 L 999.500 658.500 999.816 565 C 1000.037 499.525, 999.793 468.930, 999.002 462.927 C 997.819 453.947, 995.282 443.458, 987.652 416 C 981.414 393.550, 980.403 388.249, 978.495 368 C 976.791 349.911, 974.266 334.001, 971.037 321 C 968.229 309.694, 967.873 306.055, 968.949 299.636 C 970.403 290.965, 973.529 285.450, 982.053 276.515 C 992.319 265.756, 995.643 260.895, 998.038 253.142 C 1000.348 245.663, 1000.780 233.611, 998.978 226.919 C 997.696 222.158, 992.580 211.476, 991.161 210.600 C 990.675 210.299, 982.564 227.991, 973.136 249.914 C 954.120 294.135, 951.575 300.522, 949.440 309.391 C 948.078 315.049, 945.323 346.772, 941.526 400.500 C 939.199 433.434, 936.630 444.547, 927.967 459.159 C 922.851 467.787, 917.608 473.441, 897.418 492.106 L 880.817 507.452 881.429 511.284 C 882.545 518.259, 879.724 522.339, 863.649 537.001 L 849.043 550.322 854.056 552.019 C 860.284 554.127, 863.474 557.055, 865.594 562.608 C 868.998 571.521, 865.998 576.176, 849.227 588 C 788.703 630.671, 712.363 645.061, 642.500 626.968 C 608.997 618.292, 574.360 601.048, 547.669 579.758 C 507.391 547.629, 477.716 503.419, 462.585 453 C 451.438 415.853, 449.885 369.251, 458.470 329.543 C 465.976 294.826, 484.274 257.556, 508.812 227.002 C 541.237 186.629, 590.090 155.062, 640.461 141.936 C 676.254 132.609, 719.453 131.482, 754.500 138.960 C 820.916 153.131, 878.958 193.509, 915.917 251.253 C 919.483 256.824, 920.022 258.269, 918.997 259.503 C 916.341 262.703, 914.175 261.109, 907.103 250.750 C 881.352 213.027, 849.092 184.715, 810.500 165.967 C 787.057 154.579, 768.258 148.492, 742.001 143.787 C 725.117 140.761, 685.605 140.517, 668.500 143.332 C 624.246 150.614, 585.042 167.845, 551.075 194.943 C 539.489 204.186, 518.153 226.253, 508.923 238.540 C 484.517 271.029, 469.214 306.411, 462.445 346 C 459.905 360.854, 459.385 395.348, 461.445 412.273 C 466.637 454.931, 482.995 495.346, 509.108 530.035 C 553.483 588.983, 621.073 624.486, 695 627.679 C 744.473 629.816, 796.606 614.605, 840.593 585.199 C 848.792 579.718, 856.378 574.258, 857.450 573.067 C 862.404 567.564, 858.105 559.217, 849.838 558.285 C 843.565 557.578, 839.931 559.480, 828.729 569.337 C 812.344 583.755, 807.969 583.433, 793.035 566.713 C 783.590 556.139, 781.307 551.657, 782.630 546.287 C 783.784 541.603, 785.612 539.570, 803.866 522.688 C 835.339 493.577, 843.993 485.953, 846.770 484.890 C 848.294 484.307, 851.780 484.127, 854.662 484.483 L 859.823 485.122 876.162 470.019 C 899.100 448.815, 903.495 443.191, 907.390 430.063 C 908.437 426.533, 910.219 408.647, 912.469 379.063 C 917.394 314.317, 917.841 309.881, 920.511 299.358 C 923.326 288.262, 927.495 277.811, 948.282 229.737 C 963.731 194.011, 963.744 193.974, 961.264 193.351 C 955.192 191.827, 945.044 193.805, 935.111 198.448 C 918.122 206.390, 911.811 204.890, 895.653 189.072 C 859.559 153.738, 813.832 128.460, 766.010 117.403 C 740.431 111.489, 705.012 108.822, 680.957 110.999 M 991.653 148.831 C 990.742 149.838, 986.359 159.173, 981.914 169.577 C 975.658 184.220, 974.134 188.668, 975.166 189.271 C 975.900 189.700, 979.155 191.622, 982.400 193.542 C 985.644 195.463, 988.404 196.914, 988.532 196.767 C 989.121 196.092, 1004.307 160.183, 1005.044 157.722 C 1006.065 154.315, 1004.487 149.331, 1001.961 147.979 C 998.959 146.372, 993.467 146.826, 991.653 148.831 M 951.760 239.757 C 932.438 284.859, 928.940 293.877, 926.451 305 C 925.651 308.575, 922.995 336.700, 920.549 367.500 C 918.103 398.300, 915.574 425.975, 914.930 429 C 913.357 436.383, 909.173 445.306, 904.130 452.035 C 900.259 457.201, 869.787 486.306, 864.072 490.296 C 861.991 491.749, 860.333 491.975, 855.383 491.481 L 849.266 490.869 843.808 495.685 C 824.278 512.915, 790.682 544.707, 789.939 546.661 C 788.580 550.234, 790.106 552.940, 799.045 562.810 C 807.230 571.846, 810.065 573.651, 813.863 572.246 C 815.771 571.541, 829.987 558.767, 860.726 530.137 L 874 517.774 874 511.235 L 874 504.696 879.258 499.598 C 882.149 496.794, 891.397 488.030, 899.807 480.122 C 915.516 465.352, 921.144 458.370, 926.037 447.579 C 931.873 434.708, 931.922 434.330, 937.483 360 C 940.278 322.639, 941.325 312.801, 943.338 305 C 945.399 297.012, 967.587 243.313, 981.921 211.622 C 984.426 206.082, 984.795 204.458, 983.815 203.277 C 982.404 201.577, 972.978 196.020, 971.500 196.016 C 970.950 196.015, 962.067 215.698, 951.760 239.757 M 681.500 271.659 C 638.775 280.790, 604.960 312.582, 593.280 354.603 C 590.726 363.791, 590.528 365.861, 590.514 383.500 C 590.499 404.030, 591.155 408.114, 597.083 424.378 C 606.562 450.388, 629.262 474.817, 655.278 487.009 C 691.129 503.809, 732.576 501.046, 765.372 479.669 C 775.476 473.083, 789.020 460.416, 795.934 451.087 C 817.825 421.549, 823.722 382.566, 811.630 347.321 C 798.670 309.542, 765.550 280.175, 726.640 271.961 C 715.249 269.556, 692.066 269.401, 681.500 271.659 M 683.105 278.546 C 645.365 286.733, 615.470 312.782, 602.676 348.627 C 594.331 372.007, 594.828 399.716, 604.005 422.690 C 615.227 450.785, 637.858 473.086, 666.257 484.039 C 679.546 489.164, 686.827 490.362, 704.500 490.333 C 718.442 490.310, 721.722 489.979, 730 487.759 C 748.534 482.789, 763.678 474.125, 778.171 460.199 C 807.128 432.375, 817.569 393.137, 806.372 354.216 C 801.210 336.272, 792.205 321.425, 778.250 307.850 C 762.006 292.049, 745.182 282.956, 723.910 278.481 C 715.015 276.610, 691.861 276.647, 683.105 278.546 M 689.500 303.503 C 652.764 310.445, 625.241 340.714, 622.312 377.397 C 621.761 384.289, 621.910 385.461, 623.479 386.608 C 626.620 388.905, 629 386.670, 629 381.423 C 629 372.876, 631.990 361.749, 637.150 351.093 C 641.559 341.986, 643.334 339.540, 651.345 331.523 C 664.534 318.323, 677.695 311.912, 696.330 309.607 C 705.964 308.416, 708.684 306.734, 706.070 303.584 C 704.483 301.672, 699.325 301.647, 689.500 303.503 M 739.820 339.143 L 725.332 354.373 722.416 352.327 C 717.054 348.566, 709.413 346.710, 701.401 347.225 C 687.768 348.100, 676.060 356.198, 670.176 368.825 C 667.935 373.633, 667.529 375.882, 667.516 383.552 C 667.501 392.057, 667.733 393.076, 671.358 400.411 L 675.217 408.218 670.322 413.359 C 667.630 416.186, 661.025 423.121, 655.644 428.768 C 645.596 439.313, 644.239 442.177, 648.970 442.847 C 651.006 443.136, 653.897 440.613, 666.069 427.928 L 680.717 412.662 684.218 414.826 C 693.611 420.631, 706.860 421.895, 717.316 417.983 C 724.868 415.157, 733.106 407.568, 736.628 400.190 C 741.960 389.021, 740.875 373.228, 734.077 363.069 L 731.113 358.639 742.306 346.706 C 758.392 329.557, 759.541 328.081, 758.313 326.132 C 757.748 325.234, 756.616 324.368, 755.797 324.206 C 754.950 324.039, 748.051 330.489, 739.820 339.143 M 693.324 355.638 C 683.631 359.072, 675.242 370.240, 674.265 381.009 C 673.684 387.417, 675.822 396.026, 678.981 400 L 680.968 402.500 685.876 397 C 689.639 392.784, 690.576 391.107, 689.892 389.816 C 688.293 386.796, 688.888 378.696, 690.960 375.299 C 694.120 370.116, 701.759 367.177, 707.636 368.884 C 710.572 369.737, 711.108 369.454, 716.065 364.434 L 721.359 359.074 715.929 356.547 C 709.590 353.596, 700.156 353.217, 693.324 355.638 M 721.329 369.285 C 716.574 374.210, 716.369 374.639, 717.632 377 C 719.525 380.535, 719.317 386.926, 717.176 391.016 C 714.015 397.054, 704.947 400.451, 698.516 398.006 C 696.177 397.117, 695.380 397.499, 690.951 401.643 C 688.228 404.190, 686 406.591, 686 406.978 C 686 407.365, 688.362 408.971, 691.250 410.547 C 695.594 412.917, 697.725 413.419, 703.599 413.456 C 709.790 413.494, 711.573 413.052, 717.541 410 C 725.848 405.751, 730.209 400.225, 732.676 390.819 C 734.259 384.783, 734.263 383.901, 732.728 377.682 C 731.824 374.016, 730.021 369.454, 728.723 367.543 L 726.363 364.070 721.329 369.285 M 701.761 375.781 C 695.981 376.518, 693.937 385.028, 698.455 389.545 C 703.511 394.602, 712.037 390.974, 711.968 383.795 C 711.914 378.216, 707.828 375.008, 701.761 375.781 M 778.975 382.565 C 778.439 383.976, 777.993 387.238, 777.985 389.815 C 777.921 410.035, 763.613 433.942, 744.056 446.502 C 733.080 453.551, 725.792 455.938, 706.500 458.804 C 702.046 459.465, 701.500 459.817, 701.500 462.023 C 701.500 464.410, 701.771 464.511, 708.915 464.797 C 720.857 465.276, 736.916 459.920, 749.914 451.122 C 760.107 444.223, 771.296 431.277, 777.265 419.475 C 782.578 408.968, 786.978 387.704, 784.946 382.357 C 783.720 379.133, 780.234 379.254, 778.975 382.565" stroke="none" fill="#000000" fill-rule="evenodd" opacity="0.38"/>
</svg>
